<svg width="46" height="46" viewBox="0 0 46 46" fill="none" xmlns="http://www.w3.org/2000/svg">
<path d="M40.1838 0.0291901C39.0949 0.309544 38.8714 0.385021 38.345 0.647404C37.9123 0.86306 37.577 1.07513 37.1912 1.37704C37.0326 1.50284 29.1436 9.34196 19.6646 18.7985L2.42293 35.9899L2.03713 37.4456C1.8208 38.2471 1.61889 39.0055 1.58283 39.1349C1.48909 39.4944 0.79322 42.075 0.731926 42.2979C0.616548 42.74 0.573282 42.8981 0.292049 43.9405L0 45.026V45.5112V46H0.490354H0.977103L2.06598 45.7089C2.6645 45.5471 3.23778 45.3962 3.33513 45.371C3.43608 45.3422 3.64521 45.2883 3.80385 45.2452C3.96249 45.2021 4.63673 45.0224 5.30015 44.8462C5.96357 44.6665 6.59094 44.5012 6.68829 44.4724C6.78924 44.4473 7.48511 44.2604 8.23867 44.0591L9.60878 43.6961L27.1714 26.1847C44.5141 8.89268 44.7376 8.66983 45.008 8.26009C45.2784 7.85034 45.621 7.18539 45.7363 6.84034C46.324 5.11509 45.9346 3.44016 44.6078 1.95213C43.8867 1.14341 43.0214 0.553952 42.1308 0.270004C41.745 0.147799 41.5647 0.111858 41.0239 0.0471611C40.5335 -0.0103473 40.3533 -0.0139413 40.1838 0.0291901ZM39.3545 2.42657C39.6033 3.13824 40.1297 3.95773 40.7895 4.65862C40.9229 4.80239 41.0311 4.93538 41.0239 4.95335C41.0167 4.96773 39.7151 6.25448 38.1286 7.8108C36.5422 9.36712 34.743 11.1391 34.1265 11.7429C33.5135 12.3504 31.9127 13.9211 30.575 15.233C29.2374 16.5449 27.6149 18.1408 26.9695 18.7733C26.3241 19.4095 24.0634 21.6344 21.9397 23.7155C14.9883 30.541 13.1602 32.3382 11.7541 33.7255C7.14258 38.2759 7.14619 38.2723 6.96952 38.3478C6.71352 38.4592 6.28807 38.5598 6.07895 38.5598C5.80853 38.5598 5.67152 38.4736 5.46601 38.1824C4.99729 37.5103 4.92157 37.1437 5.11627 36.5111C5.18117 36.3134 5.24967 36.0151 5.27131 35.8534L5.31097 35.5586L21.7018 19.2118C30.7156 10.219 38.1863 2.78959 38.3017 2.69974C38.5325 2.52002 39.1454 2.14981 39.2139 2.14981C39.2355 2.14981 39.3004 2.27561 39.3545 2.42657ZM42.1452 5.81238C42.7077 6.17181 43.2125 6.36949 43.7244 6.44138L44.0237 6.48092L43.9155 6.71095C43.8542 6.83675 43.7172 7.07757 43.6055 7.25009C43.4252 7.52685 41.5755 9.3815 26.5909 24.3229L9.77824 41.0866L9.47898 41.1513C9.104 41.234 8.62086 41.2376 8.36847 41.1621C7.9971 41.0543 7.76274 40.7164 7.65457 40.1305C7.6077 39.8574 7.61131 39.1206 7.66178 39.0702C7.66899 39.0595 7.69784 39.0702 7.72308 39.0918C7.75913 39.1206 8.35765 38.5491 10.2397 36.698C11.599 35.3645 13.7876 33.2116 15.1072 31.914C16.4269 30.6201 18.107 28.9667 18.839 28.2443C19.5745 27.5218 21.2943 25.8325 22.6609 24.4882C25.0838 22.1088 26.1402 21.0737 28.7722 18.4822C29.4753 17.7921 31.6423 15.6643 33.5857 13.7557C35.529 11.8508 38.1791 9.24492 39.4807 7.96535C40.7787 6.68579 41.8496 5.63986 41.8568 5.63626C41.864 5.63626 41.9938 5.71534 42.1452 5.81238ZM4.11753 36.9748C4.08148 37.5175 4.33747 38.1681 4.8747 38.8725C5.02974 39.0738 5.31818 39.2931 5.51648 39.3542C5.81935 39.4476 6.45393 39.4548 6.68108 39.3686C6.73516 39.3434 6.74237 39.3757 6.74237 39.7208C6.74237 40.7991 7.17503 41.6186 7.91417 41.9385C8.01513 41.9816 8.24228 42.0427 8.42616 42.0786L8.75426 42.1362L6.35297 42.7759C5.02974 43.1282 3.93365 43.4121 3.91202 43.4121C3.89399 43.4085 3.68847 43.1893 3.46132 42.9197C3.23417 42.6537 2.95294 42.3231 2.83396 42.1865L2.62484 41.9385L3.29907 39.4153C3.78582 37.6002 3.99494 36.8669 4.04903 36.8058C4.08869 36.7627 4.12474 36.7268 4.12835 36.7268C4.13195 36.7268 4.12835 36.8382 4.11753 36.9748Z" fill="white"/>
</svg>
